<?xml version="1.0" standalone="no"?>
<!DOCTYPE svg PUBLIC "-//W3C//DTD SVG 20010904//EN"
 "http://www.w3.org/TR/2001/REC-SVG-20010904/DTD/svg10.dtd">
<svg version="1.0" xmlns="http://www.w3.org/2000/svg"
 width="200.000000pt" height="200.000000pt" viewBox="0 0 200.000000 200.000000"
 preserveAspectRatio="xMidYMid meet">
<metadata>
Created by potrace 1.11, written by Peter Selinger 2001-2013
</metadata>
<g transform="translate(0.000000,200.000000) scale(0.100000,-0.100000)"
fill="#000000" stroke="none">
<path d="M905 1804 c-82 -18 -119 -32 -185 -66 -110 -57 -164 -112 -130 -133
6 -3 29 9 53 28 104 83 213 123 341 126 134 3 257 -40 362 -125 50 -41 58 -44
71 -31 14 14 12 19 -17 47 -66 65 -171 120 -276 145 -52 12 -181 17 -219 9z"/>
<path d="M248 1621 c-19 -16 -22 -29 -23 -117 -2 -108 9 -151 51 -195 14 -15
25 -33 24 -40 -2 -8 -2 -124 -1 -259 2 -270 3 -277 63 -286 24 -4 40 -1 58 14
l25 20 2 267 c1 261 2 267 23 287 38 36 50 81 50 187 0 77 -4 103 -16 115 -21
22 -61 31 -78 17 -7 -6 -16 -8 -20 -4 -4 4 -36 8 -72 9 -48 1 -70 -2 -86 -15z
m59 -87 c1 -27 2 -62 2 -77 1 -26 25 -47 38 -33 4 3 7 41 8 84 1 64 4 77 18
80 15 3 17 -7 17 -78 0 -65 3 -82 16 -87 20 -7 35 14 33 47 -4 80 2 120 16
120 16 0 18 -15 18 -117 -1 -72 -9 -97 -43 -136 l-30 -34 -2 -264 -3 -264 -22
-3 c-14 -2 -24 2 -24 10 -1 7 -2 127 -3 266 l-1 252 -28 35 c-15 19 -31 44
-36 57 -10 27 -14 175 -5 189 14 23 29 -1 31 -47z"/>
<path d="M1551 1627 c-13 -6 -33 -23 -43 -38 -26 -35 -48 -171 -51 -316 -2
-116 -1 -122 21 -142 23 -19 24 -25 24 -189 1 -107 5 -174 12 -184 18 -25 54
-39 81 -32 55 14 55 14 55 455 0 373 -1 408 -17 427 -24 27 -53 34 -82 19z
m47 -56 c4 -11 7 -191 6 -401 0 -388 -2 -410 -38 -397 -14 5 -16 32 -16 180 0
173 0 174 -26 198 -25 24 -25 25 -20 144 9 182 26 265 60 287 18 12 26 9 34
-11z"/>
<path d="M910 1611 c-51 -16 -113 -54 -149 -91 -151 -159 -207 -446 -114 -587
39 -59 121 -122 181 -139 50 -15 58 -15 98 1 54 21 86 60 116 145 l23 65 41 1
c88 2 129 14 179 52 116 88 130 224 37 368 -51 79 -130 148 -198 173 -56 22
-163 27 -214 12z m214 -64 c58 -27 117 -84 143 -137 27 -55 24 -148 -7 -193
-38 -56 -85 -77 -171 -78 -132 -1 -138 0 -181 31 -30 22 -52 30 -82 29 -52 -1
-106 -20 -120 -42 -18 -29 9 -36 66 -16 38 13 58 14 79 7 16 -5 29 -13 29 -16
-1 -4 -21 -22 -45 -40 -27 -19 -45 -41 -45 -52 0 -28 31 -25 59 4 24 26 89 61
97 53 3 -2 -2 -22 -9 -43 -8 -22 -20 -57 -26 -80 -16 -58 -52 -89 -106 -89
-58 0 -93 27 -129 98 -60 120 -29 291 83 461 l25 38 13 -68 c7 -38 12 -78 11
-89 -2 -14 4 -21 19 -23 29 -4 37 38 20 103 -25 90 -4 136 70 158 65 18 145
12 207 -16z m211 -319 c-8 -51 -19 -74 -54 -111 -40 -44 -76 -58 -157 -61 -40
-2 -80 -9 -88 -15 -8 -7 -25 -42 -37 -78 -27 -82 -61 -120 -114 -128 -35 -5
-38 -4 -21 7 60 41 77 62 91 116 21 78 44 120 69 128 12 4 53 8 92 9 40 2 84
10 101 18 40 21 88 77 104 121 17 47 21 45 14 -6z"/>
<path d="M999 1445 c-78 -42 -68 -166 16 -201 44 -18 89 -8 124 27 33 32 41
61 29 106 -18 69 -104 104 -169 68z m91 -40 c60 -31 29 -131 -38 -123 -14 2
-34 15 -45 29 -24 33 -13 78 24 96 30 16 24 16 59 -2z"/>
<path d="M536 867 c-18 -13 -17 -16 25 -62 111 -120 268 -188 434 -187 83 1
90 2 164 22 94 25 242 115 249 152 6 31 -27 26 -79 -14 -223 -169 -535 -145
-729 56 -41 42 -47 45 -64 33z"/>
<path d="M169 467 c-94 -63 -88 -199 12 -249 38 -20 91 -23 120 -7 31 16 13
29 -35 25 -110 -10 -170 110 -96 189 37 40 120 45 120 8 0 -20 24 -11 29 12 9
47 -91 62 -150 22z"/>
<path d="M730 477 c0 -7 8 -17 18 -23 15 -10 17 -25 16 -110 -2 -120 -1 -115
-16 -111 -7 1 -13 -5 -13 -13 0 -11 13 -16 48 -18 41 -2 47 0 47 18 0 11 -6
19 -12 17 -19 -3 -23 86 -5 101 18 15 100 -87 86 -109 -14 -23 -11 -26 35 -27
31 -2 46 2 50 13 5 13 -6 20 -18 13 -2 -2 -30 30 -62 71 l-57 74 46 44 c26 24
51 42 56 39 7 -5 21 15 21 30 0 2 -20 4 -45 4 -43 0 -50 -5 -46 -35 0 -6 -17
-29 -39 -50 l-40 -39 0 48 c0 26 4 45 9 42 10 -7 23 19 14 28 -12 12 -93 6
-93 -7z"/>
<path d="M1012 473 c2 -10 10 -17 18 -16 17 3 17 2 80 -149 25 -59 48 -108 51
-108 4 0 23 37 42 83 l36 82 15 -35 c47 -112 57 -131 66 -125 5 3 10 10 10 15
0 5 21 59 46 119 37 87 52 111 70 115 40 10 18 36 -31 36 -44 0 -63 -16 -39
-35 9 -8 4 -29 -24 -93 -19 -45 -39 -79 -43 -75 -9 10 -69 152 -69 165 0 5 5
6 10 3 6 -3 10 3 10 14 0 18 -6 21 -51 21 -43 0 -50 -3 -47 -17 2 -10 10 -18
18 -18 8 0 21 -10 28 -23 11 -19 9 -31 -16 -88 -16 -37 -32 -62 -36 -56 -3 5
-21 46 -40 90 -24 55 -30 79 -20 75 9 -3 14 2 14 16 0 19 -6 21 -51 21 -43 0
-50 -3 -47 -17z"/>
<path d="M1524 425 c-3 -8 -3 -19 0 -24 9 -13 36 -2 36 14 0 19 -30 27 -36 10z"/>
<path d="M375 335 c-50 -49 -15 -135 55 -135 41 0 80 39 80 80 0 41 -39 80
-80 80 -19 0 -40 -9 -55 -25z m85 -25 c11 -11 20 -24 20 -30 0 -5 -9 -19 -20
-30 -11 -11 -24 -20 -30 -20 -5 0 -19 9 -30 20 -11 11 -20 25 -20 30 0 6 9 19
20 30 11 11 25 20 30 20 6 0 19 -9 30 -20z"/>
<path d="M572 340 c-79 -74 21 -188 103 -117 37 31 37 82 1 114 -33 28 -75 30
-104 3z m76 -26 c29 -20 28 -50 -2 -69 -19 -13 -29 -14 -45 -5 -26 14 -29 65
-3 79 23 14 24 14 50 -5z"/>
<path d="M1494 348 c-4 -6 0 -16 9 -23 20 -15 24 -97 5 -93 -6 2 -13 -4 -15
-12 -3 -12 7 -16 42 -17 47 -2 60 12 32 36 -8 6 -13 29 -12 58 1 27 -3 51 -9
55 -17 11 -44 9 -52 -4z"/>
<path d="M1636 344 c-27 -26 -17 -56 24 -77 13 -7 22 -16 21 -22 -1 -13 -24
-14 -32 -1 -11 15 -39 -1 -33 -19 8 -19 45 -29 73 -20 32 10 39 54 12 76 -12
10 -27 19 -34 22 -9 4 -9 7 1 18 9 9 12 10 12 1 0 -7 9 -12 19 -12 22 0 22 27
0 41 -21 13 -46 11 -63 -7z"/>
<path d="M1776 339 c-54 -42 -18 -139 52 -139 33 0 64 27 41 34 -8 3 -25 4
-38 3 -43 -3 -32 18 19 36 27 10 50 22 50 28 0 19 -49 59 -73 59 -13 0 -36 -9
-51 -21z m64 -19 c11 -7 9 -11 -13 -19 -42 -16 -52 -13 -32 9 20 23 24 23 45
10z"/>
</g>
</svg>
