<svg id="Capa_1" enable-background="new 0 0 512 512" height="512" viewBox="0 0 512 512" width="512" xmlns="http://www.w3.org/2000/svg"><g><path d="m256 19.775c-141.385 0-256 87.962-256 196.469h512c0-108.507-114.615-196.469-256-196.469z"/><path d="m0 441.843c0 27.826 22.557 50.383 50.383 50.383h411.235c27.825 0 50.383-22.557 50.383-50.383v-57.608h-512.001z"/><path d="m240.468 246.244h-54.028l-107.99 107.99h54.027z"/><path d="m336.922 246.244h-54.029l-107.99 107.99h54.028z"/><path d="m433.375 246.244h-54.028l-107.99 107.99h54.027z"/><path d="m488.713 300.239c0-18.208-9.022-34.298-22.829-44.079l-98.074 98.074h66.908c29.821 0 53.995-24.174 53.995-53.995z"/><path d="m23.287 300.239c0 18.163 8.977 34.219 22.726 44.006l98.001-98.001h-66.732c-29.821 0-53.995 24.174-53.995 53.995z"/></g></svg>