<?xml version="1.0"?>
<svg xmlns="http://www.w3.org/2000/svg" id="Capa_1" enable-background="new 0 0 507.742 507.742" height="512" viewBox="0 0 507.742 507.742" width="512" class=""><g><g><path d="m507.742 244.768c0-53.737-26.931-104-75.831-141.529-47.723-36.625-110.951-56.794-178.04-56.794s-130.317 20.17-178.04 56.794c-48.9 37.529-75.831 87.792-75.831 141.529v15h32.173c-6.597 10.208-10.445 22.35-10.445 35.382s3.848 25.175 10.445 35.383h-32.173v65.383c0 36.052 29.33 65.382 65.382 65.382h376.978c36.052 0 65.382-29.331 65.382-65.382v-65.383h-32.174c6.597-10.208 10.445-22.351 10.445-35.383s-3.848-25.175-10.445-35.382h32.173v-15zm-223.123 85.765 70.766-70.765h47.574l-70.766 70.765zm-42.426 0h-47.574l70.766-70.765h47.574zm-90 0h-47.574l70.766-70.765h47.574zm-84.301-5.699c-9.718-6.314-16.163-17.257-16.163-29.684 0-19.51 15.873-35.382 35.383-35.382h45.848zm409.85 71.082c0 19.51-15.872 35.382-35.382 35.382h-376.978c-19.51 0-35.382-15.873-35.382-35.382v-35.383h447.742zm-103.123-65.383 65.131-65.131c9.773 6.303 16.263 17.279 16.263 29.748 0 19.51-15.873 35.383-35.383 35.383zm-343.738-100.765c10.123-85.816 106.268-153.323 222.99-153.323s212.867 67.507 222.99 153.323z" data-original="#000000" class="active-path" style="fill:#FFFFFF" data-old_color="#000000"/></g></g> </svg>
